<svg height="512pt" preserveAspectRatio="xMidYMid meet" viewBox="0 0 512 512" width="512pt" xmlns="http://www.w3.org/2000/svg"><g transform="matrix(.003922 0 0 -.003922 0 512)"><path d="m62401 108661c-3202-203-3641-771-2059-2664 332-397 671-1028 753-1403 83-375 249-1026 369-1446 120-421 295-1307 388-1969 259-1848 488-1908 3222-838 1305 511 2986 1168 3736 1460 2030 793 2116 1216 768 3787-1681 3208-2116 3394-7177 3073z"/><path d="m71104 100703c-5279-2027-6334-2664-6334-3827 0-982-375-1121-973-361-1183 1505-1962 255-1051-1689 464-991 862-1400 1971-2026 764-431 2375-1763 3580-2960 1438-1428 2291-2101 2482-1957 160 121 853 647 1540 1169 909 692 1503 952 2186 957 1364 9 2101 998 1891 2537-200 1470-749 2059-1919 2059-508 0-1180 179-1493 399-524 367-620 359-1207-103-1279-1005-3437 256-3437 2009 0 1273 581 1347 2126 270 1023-714 1159-739 3739-690 1473 28 2941-40 3263-150 714-246 2579 651 3815 1834 3178 3042-4120 4855-10179 2529z"/><path d="m61051 89499c-1510-2335-2585-4656-2891-6243-134-700-424-1776-642-2389-219-614-399-1475-399-1913-1-438-418-2403-926-4366-1321-5106-1610-8597-768-9267 161-128 1383-297 2715-377 7411-445 16640-2210 17601-3368 304-368 235-751-856-4711-989-3592-3403-9220-5356-12488-2303-3851-1655-5617 2059-5617 2086 0 2397 247 1627 1289-631 854-699 1831-158 2280 771 640 4261 7571 4993 9916 745 2387 2389 6958 3149 8756 1302 3079-381 4031-11190 6324-3719 789-4553 1196-4057 1976 286 450 591 471 3791 268 1240-79 1277-61 1359 661 148 1296-376 1827-2808 2847l-2277 955-1261 2546c-2020 4080-1252 5423 977 1707 1885-3144 2849-3397 13062-3426 9813-28 10604-340 7830-3090l-1327-1316-2109-171c-2565-207-3119 13-3119 1236 0 1447-553 1759-2810 1585-3093-239-3463-485-3926-2617-298-1372 343-1818 3676-2555 6536-1445 7927-3887 5506-9663-529-1263-1456-3615-2061-5228-604-1613-1355-3564-1669-4335-313-771-737-1819-942-2328-658-1630 267-3053 1163-1790 234 329 840 1075 1348 1657 507 582 1127 1460 1378 1951 1815 3552 7291 8160 9698 8160 1113 0 1284 1221 358 2545-5190 7418-5341 8135-2378 11228 1798 1877 2134 2561 2134 4340 0 2910-3090 4286-9690 4315-1753 7-3761 121-4462 253-2358 442-4645 779-5290 779-1066 0-1340 585-849 1812 556 1392 145 2199-2809 5518-4093 4597-5627 5085-7394 2354z"/><path d="m47844 89130c-2560-912-4565-4777-3106-5988 699-580 2084 350 2403 1615 658 2614 3728 3048 4382 620 306-1136 110-4325-315-5133-134-254-338-1000-453-1657s-460-2342-766-3744c-1336-6120-2131-13313-1549-14014 439-529 3385-554 3818-32 167 201 346 1475 403 2869 138 3338 367 5654 653 6588 129 421 351 1569 493 2550 614 4233 1283 7539 1689 8337 1100 2168-520 6326-3070 7881-947 578-3121 629-4582 108z"/><path d="m36648 85227c-829-514-1787-2335-1668-3173 121-852 1081-882 2253-70 904 627 1110 667 2627 504 1838-197 2602-46 2835 560 604 1574-4219 3312-6047 2179z"/><path d="m44243 80315c-1403-256-4494-805-6870-1221-5506-964-5543-1003-4377-4641 496-1549 665-2876 902-7088 395-7029 722-7761 3269-7336 525 88 2505 282 4398 433 4972 395 4540-397 5491 10046 204 2244 601 5033 882 6199 1072 4440 1040 4472-3695 3608z"/><path d="m55230 62766c-452-731 183-2966 1075-3786 1503-1381 2253-1605 5365-1605 3438 0 4028-381 2979-1927-321-473-660-1369-753-1991-93-621-566-2084-1050-3250-485-1166-882-2354-882-2640-1-286-350-1416-776-2512-1895-4870-1434-6071 2392-6241 3080-137 3259-30 2596 1557-439 1049-332 1402 1040 3418 1881 2765 5811 11876 5769 13372-41 1423-2221 4039-3367 4039-278 0-995 111-1593 247-2524 574-6046 1120-7590 1176-912 33-2418 140-3347 239-1115 118-1746 85-1858-96z"/><path d="m41565 55922c-491-53-2155-274-3697-489-1543-216-3551-496-4463-622s-2403-461-3315-743c-912-283-2005-515-2430-516-1261-3-1801-577-2133-2263-164-835-570-1917-902-2407-707-1042-2315-6611-2083-7216 109-284 338-366 730-261 314 84 1690 155 3059 157l2488 3 1526 1403c1097 1008 1728 1402 2245 1402 474 0 975 270 1469 791 3751 3965 10883 5575 15539 3509 2047-908 4010-2203 5340-3520 1811-1795 2140-1859 3354-645 4069 4069 1349 8591-6290 10454-1463 357-3012 760-3443 895-743 233-5077 275-6994 68z"/><path d="m94733 53853c-6373-989-9462-3356-13705-10503-791-1332-1520-2639-1621-2903-358-941-1941-3094-2484-3378-661-346-4945-454-15577-394l-7887 45-2568 2645c-2766 2848-5666 4510-7198 4125-340-85-1086-28-1658 126-714 192-1412 202-2222 30-649-138-1869-388-2710-556-2421-483-2869-672-4610-1950-2023-1486-3780-4077-4196-6189-154-780-445-1936-646-2568-272-853-300-1378-111-2038 140-489 255-1305 255-1814 0-3136 3686-8098 7413-9980l1895-957 3570-51 3570-50 2278 1196c1253 658 2573 1471 2932 1807 360 337 915 691 1234 787 1232 372 3539 4361 3177 5492-866 2704-5921 3738-5925 1211-2-1126-941-2186-2732-3081-2975-1487-3407-1565-5293-956-904 292-1815 531-2026 531s-592 224-846 497c-255 274-847 761-1315 1084-1077 741-1606 2099-1745 4475-476 8169 10749 10826 14311 3387l795-1660 2040-421c2626-542 2922-663 3746-1535l687-727 4286-57c2357-32 5777-25 7601 16 1823 40 5036 103 7140 140 4748 83 4281-6 5437 1038 536 485 1278 997 1647 1137 768 292 1544 1658 2074 3647 1401 5262 5650 10561 9388 11708 4064 1246 7731 1010 12544-806l2259-853 474 586c2963 3660-6268 8868-13678 7717z"/><path d="m45435 46775c45-220 984-797 2085-1282 2207-972 3198-1636 5207-3491 1373-1268 1730-1368 2203-618 334 530-1556 2580-3609 3915-2247 1461-6081 2422-5886 1476z"/><path d="m96960 45281c-1248-569-1241-952 65-3393 1359-2539 1687-2873 2824-2873 1761 0 4964-1835 5707-3269 3678-7104-2767-14360-9893-11140-4466 2018-5067 10227-949 12961 948 629 1421 1115 1421 1461 0 1020-2163 4629-2957 4934-1509 579-4940-3354-6095-6987-245-771-647-1747-893-2167-737-1263-920-5298-287-6329 275-446 576-1270 669-1831 417-2500 875-3364 2691-5078 1815-1712 4096-3203 4906-3208 251-1 912-235 1470-519 767-391 1132-453 1503-255 269 144 1550 262 2847 262 2131 0 3463 223 4569 764 215 105 778 276 1250 380 1228 270 4775 3962 5147 5359 150 561 441 1209 647 1440 1305 1463 1599 6152 611 9751-1756 6401-10430 11938-15253 9737z"/><path d="m99675 34361c-17-175-6-433 23-573 492-2336-342-3047-2304-1964-1889 1043-2112 926-1970-1037 206-2846 2450-4280 4989-3188 2539 1091 3235 3132 1831 5368-873 1391-2487 2266-2569 1394z"/><path d="m37281 32589c-168-168-306-896-306-1618 0-3372 5350-5202 7553-2583 1064 1264 762 1802-1110 1982-1449 138-1700 256-2857 1338-1321 1235-2586 1575-3280 881z"/></g></svg>